Normalized EMG Linear Envelopes
nRows=27
nColumns=17

endheader
time	        VM	        VL	        RF	       GRA	        TA	   ADDLONG	   SEMIMEM	      BFLH	        GM	        GL	       TFL	   GLUTMAX	   GLUTMED	      PIRI	    OBTINT	        QF	
1.825	  0.049133	  0.043284	  0.245036	  0.359515	  0.466569	  0.140285	  0.065730	  0.077917	  0.107522	  0.024017	  0.194139	  0.012389	  0.076378	  0.128128	  0.110777	  0.068141	
1.8255	  0.048840	  0.042881	  0.242730	  0.359067	  0.464606	  0.139400	  0.065942	  0.078254	  0.108263	  0.024085	  0.192498	  0.012741	  0.077360	  0.128034	  0.113064	  0.068919	
1.826	  0.048542	  0.042475	  0.240412	  0.358587	  0.462609	  0.138537	  0.066170	  0.078610	  0.108991	  0.024158	  0.190847	  0.013110	  0.078357	  0.127973	  0.115391	  0.069722	
1.8265	  0.048238	  0.042068	  0.238084	  0.358074	  0.460579	  0.137694	  0.066417	  0.078986	  0.109705	  0.024235	  0.189185	  0.013496	  0.079369	  0.127945	  0.117758	  0.070550	
1.827	  0.047928	  0.041659	  0.235746	  0.357529	  0.458515	  0.136874	  0.066681	  0.079381	  0.110404	  0.024317	  0.187512	  0.013900	  0.080397	  0.127948	  0.120165	  0.071404	
1.8275	  0.047614	  0.041249	  0.233399	  0.356952	  0.456418	  0.136076	  0.066965	  0.079797	  0.111089	  0.024404	  0.185828	  0.014321	  0.081439	  0.127984	  0.122612	  0.072285	
1.828	  0.047294	  0.040837	  0.231042	  0.356344	  0.454288	  0.135301	  0.067268	  0.080234	  0.111760	  0.024496	  0.184133	  0.014761	  0.082496	  0.128052	  0.125100	  0.073192	
1.8285	  0.046969	  0.040425	  0.228677	  0.355706	  0.452125	  0.134550	  0.067591	  0.080691	  0.112415	  0.024594	  0.182426	  0.015218	  0.083567	  0.128152	  0.127629	  0.074128	
1.829	  0.046640	  0.040011	  0.226305	  0.355038	  0.449929	  0.133824	  0.067934	  0.081170	  0.113056	  0.024697	  0.180709	  0.015695	  0.084652	  0.128284	  0.130198	  0.075093	
1.8295	  0.046306	  0.039597	  0.223925	  0.354343	  0.447700	  0.133123	  0.068299	  0.081671	  0.113682	  0.024805	  0.178982	  0.016191	  0.085751	  0.128448	  0.132810	  0.076087	
1.83	  0.045968	  0.039182	  0.221539	  0.353621	  0.445438	  0.132448	  0.068685	  0.082194	  0.114294	  0.024920	  0.177243	  0.016707	  0.086864	  0.128645	  0.135462	  0.077112	
1.8305	  0.045626	  0.038767	  0.219147	  0.352875	  0.443144	  0.131800	  0.069093	  0.082739	  0.114890	  0.025040	  0.175495	  0.017243	  0.087991	  0.128873	  0.138157	  0.078168	
1.831	  0.045280	  0.038352	  0.216750	  0.352105	  0.440818	  0.131179	  0.069524	  0.083307	  0.115471	  0.025167	  0.173736	  0.017800	  0.089133	  0.129133	  0.140894	  0.079256	
1.8315	  0.044931	  0.037936	  0.214350	  0.351314	  0.438460	  0.130585	  0.069979	  0.083898	  0.116036	  0.025299	  0.171967	  0.018377	  0.090288	  0.129425	  0.143673	  0.080378	
1.832	  0.044578	  0.037521	  0.211945	  0.350501	  0.436071	  0.130020	  0.070457	  0.084513	  0.116587	  0.025438	  0.170188	  0.018975	  0.091457	  0.129748	  0.146495	  0.081535	
1.8325	  0.044221	  0.037106	  0.209538	  0.349669	  0.433652	  0.129484	  0.070960	  0.085153	  0.117122	  0.025584	  0.168400	  0.019595	  0.092641	  0.130102	  0.149360	  0.082726	
1.833	  0.043862	  0.036691	  0.207128	  0.348820	  0.431205	  0.128977	  0.071488	  0.085817	  0.117642	  0.025736	  0.166602	  0.020237	  0.093838	  0.130487	  0.152268	  0.083955	
1.8335	  0.043500	  0.036276	  0.204717	  0.347953	  0.428732	  0.128499	  0.072042	  0.086506	  0.118147	  0.025895	  0.164795	  0.020901	  0.095050	  0.130903	  0.155220	  0.085220	
1.834	  0.043136	  0.035862	  0.202305	  0.347071	  0.426233	  0.128051	  0.072623	  0.087221	  0.118636	  0.026061	  0.162979	  0.021588	  0.096276	  0.131350	  0.158217	  0.086524	
1.8345	  0.042769	  0.035449	  0.199892	  0.346176	  0.423711	  0.127634	  0.073232	  0.087962	  0.119111	  0.026234	  0.161156	  0.022298	  0.097517	  0.131829	  0.161257	  0.087866	
1.835	  0.042400	  0.035036	  0.197480	  0.345268	  0.421167	  0.127247	  0.073868	  0.088730	  0.119570	  0.026414	  0.159324	  0.023031	  0.098773	  0.132338	  0.164343	  0.089249	
1.8355	  0.042029	  0.034625	  0.195069	  0.344349	  0.418603	  0.126891	  0.074533	  0.089525	  0.120016	  0.026602	  0.157486	  0.023789	  0.100044	  0.132879	  0.167474	  0.090673	
1.836	  0.041656	  0.034214	  0.192660	  0.343421	  0.416019	  0.126566	  0.075228	  0.090348	  0.120447	  0.026797	  0.155642	  0.024571	  0.101331	  0.133451	  0.170651	  0.092139	
1.8365	  0.041282	  0.033805	  0.190253	  0.342484	  0.413419	  0.126273	  0.075953	  0.091198	  0.120864	  0.026999	  0.153792	  0.025377	  0.102634	  0.134055	  0.173874	  0.093647	
1.837	  0.040906	  0.033396	  0.187848	  0.341540	  0.410803	  0.126011	  0.076709	  0.092078	  0.121269	  0.027210	  0.151937	  0.026208	  0.103953	  0.134691	  0.177143	  0.095199	
1.8375	  0.040529	  0.032989	  0.185447	  0.340590	  0.408174	  0.125780	  0.077497	  0.092986	  0.121662	  0.027428	  0.150078	  0.027065	  0.105289	  0.135359	  0.180459	  0.096796	
1.838	  0.040151	  0.032583	  0.183049	  0.339634	  0.405532	  0.125582	  0.078317	  0.093923	  0.122043	  0.027655	  0.148216	  0.027948	  0.106643	  0.136059	  0.183821	  0.098438	
